# xmcd
#
# Track frame offsets: 
#        150
#        8162
#        27830
#        47452
#        61347
#        77312
#        93005
#        114052
#        136342
#        161567
#        185580
#        200192
#        224705
#        248897
#        273702
#        291980
#
# Disc length: 4055 seconds
#
# Revision: 0
# Processed by: cddbd v1.5.2PL0 Copyright (c) Steve Scherf et al.
# Submitted via: ExactAudioCopyFreeDBPlugin 1.0
#
DISCID=df0fd510
DTITLE=Horst Bergmeyer Duo - Young Days
DYEAR=2010
DGENRE=Blues
TTITLE0=Anna's Boogie
TTITLE1=Sixteen Zons
TTITLE2=Lies Lies Lies
TTITLE3=Cold Shot
TTITLE4=Young Days
TTITLE5=Willy and the Hand Jive
TTITLE6=Temptation
TTITLE7=Blues after Midnight
TTITLE8=Tough Times
TTITLE9=What'd I Say
TTITLE10=I'm Ready
TTITLE11=Parchman Farm
TTITLE12=Dirty Low Down and Bad
TTITLE13=Same Old Blues
TTITLE14=Riders on the Storm
TTITLE15=Stop Drinking
EXTD=
EXTT0=
EXTT1=
EXTT2=
EXTT3=
EXTT4=
EXTT5=
EXTT6=
EXTT7=
EXTT8=
EXTT9=
EXTT10=
EXTT11=
EXTT12=
EXTT13=
EXTT14=
EXTT15=
PLAYORDER=
